<svg width="128" height="128" viewBox="0 0 128 128" fill="none" xmlns="http://www.w3.org/2000/svg">
  <filter id="shadow" x="6" y="7" width="116" height="113" filterUnits="userSpaceOnUse" color-interpolation-filters="sRGB">
    <feDropShadow dx="0" dy="4" stdDeviation="5" flood-color="#000000" flood-opacity="0.28"/>
  </filter>
  <g filter="url(#shadow)">
    <path d="M19 80.2C15.7 73.5 16.9 62.5 26.7 59.3C23.5 49.2 29.8 34.4 43.9 27.7C57.1 21.4 77 21 91.2 27.7C105.2 34.4 111.1 49.2 107.7 59.4C117.3 62.8 118.5 73.6 115.2 80.2C119.1 85.5 117.9 96.7 108 100.2C105.1 108.4 95.4 112 80.7 112H47.9C33.1 112 23.4 108.4 20.5 100.2C10.8 96.8 9.6 85.5 13.4 80.2H19Z" fill="white"/>
    <path d="M26 58.5C27.9 35.2 45.7 22 64.3 22C83.1 22 100.8 35.2 102.8 58.5H26Z" fill="#F9A823"/>
    <path d="M29.5 57.7C34.9 42 49.6 31.1 64.3 31.1C79.5 31.1 93.4 42.1 99.3 57.7H29.5Z" fill="#FFC247"/>
    <path d="M38 42.6C38 40.9 39.4 39.5 41.1 39.5H41.4C43.1 39.5 44.5 40.9 44.5 42.6C44.5 44.3 43.1 45.7 41.4 45.7H41.1C39.4 45.7 38 44.3 38 42.6Z" fill="#FFE394"/>
    <path d="M54.4 35.5C54.4 33.8 55.8 32.4 57.5 32.4H57.8C59.5 32.4 60.9 33.8 60.9 35.5C60.9 37.2 59.5 38.6 57.8 38.6H57.5C55.8 38.6 54.4 37.2 54.4 35.5Z" fill="#FFE394"/>
    <path d="M73.2 35.6C73.2 33.9 74.6 32.5 76.3 32.5H76.6C78.3 32.5 79.7 33.9 79.7 35.6C79.7 37.3 78.3 38.7 76.6 38.7H76.3C74.6 38.7 73.2 37.3 73.2 35.6Z" fill="#FFE394"/>
    <path d="M87.2 44.1C87.2 42.4 88.6 41 90.3 41H90.6C92.3 41 93.7 42.4 93.7 44.1C93.7 45.8 92.3 47.2 90.6 47.2H90.3C88.6 47.2 87.2 45.8 87.2 44.1Z" fill="#FFE394"/>
    <path d="M32 60.6C36.3 55.9 42.2 55.9 46.1 60.6C50.3 55.9 56 55.9 60.1 60.6C64.2 55.8 70.1 55.8 74.2 60.6C78.3 55.9 84.2 55.9 88.1 60.6C92.2 55.9 98 55.9 102.3 60.6V68.1C97.9 72.9 92 72.9 88.1 68.1C84.2 72.9 78.2 72.9 74.2 68.1C70.2 72.9 64.2 72.9 60.1 68.1C56 72.9 50.2 72.9 46.1 68.1C42.1 72.9 36.1 72.9 32 68.1V60.6Z" fill="#78C91D"/>
    <path d="M29 72.2H105C108 72.2 110.5 74.7 110.5 77.7C110.5 80.7 108 83.2 105 83.2H29C26 83.2 23.5 80.7 23.5 77.7C23.5 74.7 26 72.2 29 72.2Z" fill="#E9442E"/>
    <path d="M31 82.2H103.8L70.8 97.4C68.7 98.4 66.2 98.4 64.1 97.4L31 82.2Z" fill="#FFD64D"/>
    <path d="M27.5 84.6H108C111.4 84.6 114.2 87.4 114.2 90.8C114.2 94.2 111.4 97 108 97H27.5C24.1 97 21.3 94.2 21.3 90.8C21.3 87.4 24.1 84.6 27.5 84.6Z" fill="#8F4B18"/>
    <path d="M30 96.2H105.6C108.9 96.2 111.5 98.8 111.5 102.1C111.5 105.4 108.9 108 105.6 108H30C26.7 108 24.1 105.4 24.1 102.1C24.1 98.8 26.7 96.2 30 96.2Z" fill="#F4A11E"/>
    <path d="M31.5 98.3H104.1C106 98.3 107.6 99.9 107.6 101.8C107.6 103.7 106 105.3 104.1 105.3H31.5C29.6 105.3 28 103.7 28 101.8C28 99.9 29.6 98.3 31.5 98.3Z" fill="#FFC247"/>
    <path d="M26 58.5C27.9 35.2 45.7 22 64.3 22C83.1 22 100.8 35.2 102.8 58.5" stroke="#7A3B09" stroke-width="3" stroke-linecap="round"/>
    <path d="M24.1 102.1C24.1 105.4 26.7 108 30 108H105.6C108.9 108 111.5 105.4 111.5 102.1" stroke="#7A3B09" stroke-width="3" stroke-linecap="round"/>
  </g>
</svg>
